# AST/ASF file generated using VICON BodyLanguage
# -----------------------------------------------
:version 1.10
:name VICON
:units
  mass 1.0
  length 0.45
  angle deg
:documentation
   .ast/.asf automatically generated from VICON data using
   VICON BodyBuilder and BodyLanguage model FoxedUp or BRILLIANT.MOD
:root
   order TX TY TZ RX RY RZ
   axis XYZ
   position 0 0 0  
   orientation 0 0 0 
:bonedata
  begin
     id 1 
     name lhipjoint
     direction 0.578396 -0.714046 0.394458 
     length 2.21935 
     axis 0 0 0  XYZ
  end
  begin
     id 2 
     name lfemur
     direction 0.34202 -0.939693 0  
     length 6.39105  
     axis 0 0 20  XYZ
    dof rx ry rz
    limits (-160.0 20.0)
           (-70.0 70.0)
           (-60.0 70.0)
  end
  begin
     id 3 
     name ltibia
     direction 0.34202 -0.939693 0   
     length 6.99037   
     axis 0 0 20   XYZ
    dof rx
    limits (-10.0 170.0)
  end
  begin
     id 4 
     name lfoot
     direction 0.0582372 -0.160005 0.985397   
     length 2.06111   
     axis -90 7.62852e-016 20   XYZ
    dof rx rz
    limits (-45.0 90.0)
           (-70.0 20.0)
  end
  begin
     id 5 
     name ltoes
     direction 1.53556e-011 -4.21875e-011 1   
     length 1.04074   
     axis -90 7.62852e-016 20   XYZ
    dof rx
    limits (-90.0 20.0)
  end
  begin
     id 6 
     name rhipjoint
     direction -0.558179 -0.726269 0.40121   
     length 2.182  
     axis 0 0 0  XYZ 
  end
  begin
     id 7 
     name rfemur
     direction -0.34202 -0.939693 0   
     length 6.51172   
     axis 0 0 -20   XYZ
    dof rx ry rz
    limits (-160.0 20.0)
           (-70.0 70.0)
           (-70.0 60.0)
  end
  begin
     id 8 
     name rtibia
     direction -0.34202 -0.939693 0   
     length 7.02607   
     axis 0 0 -20   XYZ
    dof rx
    limits (-10.0 170.0)
 end
 begin
     id 9 
     name rfoot
     direction -0.0788856 -0.216737 0.973038   
     length 1.96734  
     axis -90 -7.62852e-016 -20   XYZ
    dof rx rz
    limits (-45.0 90.0)
           (-20.0 70.0)
  end
  begin
     id 10 
     name rtoes
     direction -1.53567e-011 -4.21783e-011 1   
     length 0.990825   
     axis -90 -7.62852e-016 -20   XYZ
    dof rx
    limits (-90.0 20.0)
  end
  begin
     id 11 
     name lowerback
     direction 0.00668177 0.999323 -0.0361741   
     length 1.7655   
     axis 0 0 0   XYZ
    dof rx ry rz
    limits (-20.0 45.0)
           (-30.0 30.0)
           (-30.0 30.0)
  end
  begin
     id 12 
     name upperback
     direction -0.00222086 0.99851 0.0545167   
     length 1.74912   
     axis 0 0 0   XYZ
    dof rx ry rz
    limits (-20.0 45.0)
           (-30.0 30.0)
           (-30.0 30.0)
  end
  begin
     id 13 
     name thorax
     direction -0.00733971 0.997496 0.0703443   
     length 1.75715   
     axis 0 0 0   XYZ
    dof rx ry rz
    limits (-20.0 45.0)
           (-30.0 30.0)
           (-30.0 30.0)
  end
  begin
     id 14 
     name lowerneck
     direction 0.0279797 0.994795 0.0979765   
     length 1.46939   
     axis 0 0 0   XYZ
    dof rx ry rz
    limits (-20.0 45.0)
           (-30.0 30.0)
           (-30.0 30.0)
  end
  begin
     id 15 
     name upperneck
     direction 0.00339187 0.976776 -0.214238   
     length 1.48018   
     axis 0 0 0   XYZ
    dof rx ry rz
    limits (-20.0 45.0)
           (-30.0 30.0)
           (-30.0 30.0)
  end
  begin
     id 16
     name head
     direction -0.00263506 0.996603 -0.0823096  
     length 1.4976  
     axis 0 0 0   XYZ
    dof rx ry rz
    limits (-20.0 45.0)
           (-30.0 30.0)
           (-30.0 30.0)
  end
  begin
     id 17 
     name lclavicle
     direction 0.894044 0.44508 -0.0508781  
     length 3.03024  
     axis 0 0 0   XYZ
    dof ry rz
    limits (-20.0 10.0)
           (0.0 20.0)
  end
  begin
     id 18 
     name lhumerus
     direction 1 -4.48961e-011 -2.39475e-018   
     length 4.4661   
     axis 180 -30 -90   XYZ
    dof rx ry rz
    limits (-60.0 90.0)
           (-90.0 90.0)
           (-90.0 90.0)
  end
  begin
     id 19
     name lradius
     direction 1 -4.48961e-011 9.29328e-028   
     length 3.41414   
     axis 180 -30 -90   XYZ
    dof rx
    limits (-10.0 170.0)
  end
  begin
     id 20
     name lwrist
     direction 1 -4.48985e-011 1.53461e-026   
     length 1.70707   
     axis -1.09697e-014 90 90   XYZ
    dof ry
    limits (-180.0 0.0)
 end
  begin
     id 21 
     name lhand
     direction 1 -4.48966e-011 3.06923e-026   
     length 0.328298   
     axis -1.95843e-014 90 90   XYZ
    dof rx rz
    limits (-90.0 90.0)
           (-45.0 45.0)
  end
  begin
     id 22 
     name lfingers
     direction 1 -4.48893e-011 6.13845e-026   
     length 0.264682   
     axis -3.91686e-014 90 90   XYZ
    dof rx
    limits (0.0 90.0)
  end
  begin
     id 23
     name lthumb
     direction 0.707107 -6.34876e-011 0.707107   
     length 0.380032   
     axis -90 45 2.85299e-015   XYZ
    dof rx rz
    limits (-45.0 45.0)
           (-45.0 45.0)
  end
  begin
     id 24 
     name rclavicle
     direction -0.936955 0.347862 -0.0332887   
     length 3.26927  
     axis 0 0 0   XYZ 
    dof ry rz
    limits (-10.0 20.0)
           (-20.0 0.0)
  end
  begin
     id 25 
     name rhumerus
     direction -1 -4.4896e-011 1.78637e-018  
     length 4.40431   
     axis 180 30 90   XYZ
    dof rx ry rz
    limits (-90.0 60.0)
           (-90.0 90.0)
           (-90.0 90.0)
  end
  begin
     id 26 
     name rradius
     direction -1 -4.48955e-011 9.34036e-027   
     length 3.04688   
     axis 180 30 90   XYZ
    dof rx
    limits (-10.0 170.0)
  end
  begin
     id 27 
     name rwrist
     direction -1 -4.49011e-011 1.53461e-026   
     length 1.52344   
     axis -1.09697e-014 -90 -90   XYZ
    dof ry
    limits (-180.0 0.0)
  end
  begin
     id 28
     name rhand
     direction -1 -4.48834e-011 3.06923e-026   
     length 0.500489   
     axis -1.95843e-014 -90 -90   XYZ
    dof rx rz
    limits (-90.0 90.0)
           (-45.0 45.0)
  end
  begin
     id 29
     name rfingers
     direction -1 -4.48967e-011 6.13845e-026   
     length 0.403507   
     axis -3.91686e-014 -90 -90   XYZ
    dof rx
    limits (0.0 90.0)
  end
  begin
     id 30
     name rthumb
     direction -0.707107 -6.34826e-011 0.707107   
     length 0.579358   
     axis -90 -45 -2.85299e-015   XYZ
    dof rx rz
    limits (-45.0 45.0)
           (-45.0 45.0)
  end
:hierarchy
  begin
    root lhipjoint rhipjoint lowerback
    lhipjoint lfemur
    lfemur ltibia
    ltibia lfoot
    lfoot ltoes
    rhipjoint rfemur
    rfemur rtibia
    rtibia rfoot
    rfoot rtoes
    lowerback upperback
    upperback thorax
    thorax lowerneck lclavicle rclavicle
    lowerneck upperneck
    upperneck head
    lclavicle lhumerus
    lhumerus lradius
    lradius lwrist
    lwrist lhand lthumb
    lhand lfingers
    rclavicle rhumerus
    rhumerus rradius
    rradius rwrist
    rwrist rhand rthumb
    rhand rfingers
  end

#!OML:ASF H:\IndianDance\Patient Classification 1\Patient 1\Session 1\dancer.ASF
:FULLY-SPECIFIED
:DEGREES
64
root 7.43522 15.6733 0.291663 28.4042 -87.8446 -21.0789
lowerback -0.413336 1.13939 -0.967919
upperback -5.24225 1.41801 0.307915
thorax -5.21425 0.716171 0.804892
lowerneck -18.0742 2.13896 5.6842
upperneck 20.0698 1.70895 -1.9919
head 9.38949 0.968341 -1.40901
rclavicle -2.12451e-015 3.57812e-015
rhumerus -13.3006 -18.1528 -21.8351
rradius 34.4449
rwrist -0.206106
rhand 8.83025 -1.8894
rfingers 7.12502
rthumb 34.016 -28.6696
lclavicle -2.12451e-015 3.57812e-015
lhumerus -6.11437 15.0544 19.7678
lradius 29.5125
lwrist -13.5469
lhand 16.7702 13.8162
lfingers 7.12502
lthumb 41.5153 38.5666
rfemur -11.3374 17.7055 7.88781
rtibia 19.1213
rfoot -11.712 -36.6645
rtoes 8.24506
lfemur -6.58673 -11.3402 -9.64943
ltibia 12.58
lfoot -11.3665 35.511
ltoes 13.199
65
root 7.43506 15.6734 0.291449 28.3211 -87.8464 -20.9951
lowerback -0.416941 1.13679 -0.966222
upperback -5.23811 1.41489 0.311932
thorax -5.20783 0.714648 0.808342
lowerneck -18.1164 2.13445 5.68635
upperneck 20.1039 1.69755 -1.98492
head 9.40866 0.964089 -1.40847
rclavicle -2.60097e-014 -1.26725e-014
rhumerus -13.3141 -18.1662 -21.837
rradius 34.4417
rwrist -0.208055
rhand 8.83699 -1.89916
rfingers 7.12502
rthumb 34.0224 -28.6779
lclavicle -2.60097e-014 -1.26725e-014
lhumerus -6.12216 15.1084 19.7561
lradius 29.4707
lwrist -13.5787
lhand 16.7423 13.4859
lfingers 7.12502
lthumb 41.489 38.2448
rfemur -11.3385 17.7004 7.88494
rtibia 19.1229
rfoot -11.7091 -36.6609
rtoes 8.24422
lfemur -6.58496 -11.3246 -9.65261
ltibia 12.5746
lfoot -11.338 35.504
ltoes 13.1547
66
root 7.43496 15.6735 0.291166 28.2916 -87.8504 -20.9652
lowerback -0.418857 1.13555 -0.964118
upperback -5.23418 1.4136 0.316356
thorax -5.20262 0.714037 0.811872
lowerneck -18.154 2.12919 5.68465
upperneck 20.1337 1.68576 -1.97469
head 9.42539 0.959715 -1.40623
rclavicle 4.15274e-015 6.95746e-016
rhumerus -13.3288 -18.1769 -21.8378
rradius 34.4383
rwrist -0.212268
rhand 8.83989 -1.91439
rfingers 7.12502
rthumb 34.0252 -28.6926
lclavicle 4.15274e-015 6.95746e-016
lhumerus -6.12936 15.1463 19.7482
lradius 29.4388
lwrist -13.594
lhand 16.7283 13.2571
lfingers 7.12502
lthumb 41.4759 38.0203
rfemur -11.3418 17.6958 7.88337
rtibia 19.1265
rfoot -11.6951 -36.6565
rtoes 8.21385
lfemur -6.58129 -11.3095 -9.65465
ltibia 12.5673
lfoot -11.3118 35.4984
ltoes 13.1156
67
root 7.43487 15.6735 0.290892 28.1992 -87.856 -20.8728
lowerback -0.420479 1.13439 -0.964512
upperback -5.22932 1.41238 0.320491
thorax -5.19668 0.713569 0.8165
lowerneck -18.1871 2.12498 5.6818
upperneck 20.1572 1.6767 -1.96689
head 9.4392 0.956234 -1.40425
rclavicle -2.18849e-014 -4.57205e-015
rhumerus -13.3429 -18.1824 -21.8381
rradius 34.436
rwrist -0.222982
rhand 8.83413 -1.93682
rfingers 7.12502
rthumb 34.0197 -28.7162
lclavicle -2.18849e-014 -4.57205e-015
lhumerus -6.13866 15.1476 19.7464
lradius 29.436
lwrist -13.5818
lhand 16.7549 13.2816
lfingers 7.12502
lthumb 41.5009 38.0367
rfemur -11.3461 17.6909 7.87865
rtibia 19.1325
rfoot -11.6778 -36.6513
rtoes 8.17377
lfemur -6.57551 -11.2966 -9.65997
ltibia 12.5573
lfoot -11.2853 35.4944
ltoes 13.0794
68
root 7.43476 15.6735 0.290609 28.1016 -87.8638 -20.7758
lowerback -0.4221 1.13444 -0.966055
upperback -5.22399 1.41277 0.324595
thorax -5.19031 0.713959 0.821674
lowerneck -18.215 2.12028 5.67548
upperneck 20.1757 1.66801 -1.95782
head 9.45027 0.952791 -1.40121
rclavicle 1.11164e-014 -3.8266e-015
rhumerus -13.3582 -18.1862 -21.8368
rradius 34.4341
rwrist -0.234214
rhand 8.82602 -1.95681
rfingers 7.12502
rthumb 34.012 -28.7379
lclavicle 1.11164e-014 -3.8266e-015
lhumerus -6.14894 15.1137 19.7506
lradius 29.4582
lwrist -13.5402
lhand 16.801 13.513
lfingers 7.12502
lthumb 41.5442 38.2539
rfemur -11.351 17.6897 7.8723
rtibia 19.1403
rfoot -11.6655 -36.6471
rtoes 8.13686
lfemur -6.56711 -11.2889 -9.66697
ltibia 12.5462
lfoot -11.2699 35.4947
ltoes 13.0629
69
root 7.43466 15.6735 0.290361 27.9802 -87.874 -20.6538
lowerback -0.425066 1.13478 -0.968779
upperback -5.21858 1.41351 0.328585
thorax -5.18312 0.714567 0.827404
lowerneck -18.2375 2.11597 5.66417
upperneck 20.1878 1.66116 -1.94645
head 9.45815 0.950066 -1.39628
rclavicle 2.56494e-014 9.19379e-016
rhumerus -13.3717 -18.1885 -21.836
rradius 34.4329
rwrist -0.244773
rhand 8.81602 -1.97466
rfingers 7.12502
rthumb 34.0025 -28.7579
lclavicle 2.56494e-014 9.19379e-016
lhumerus -6.16206 15.0642 19.7569
lradius 29.4936
lwrist -13.485
lhand 16.8595 13.845
lfingers 7.12502
lthumb 41.599 38.568
rfemur -11.3585 17.686 7.86291
rtibia 19.149
rfoot -11.6474 -36.6399
rtoes 8.08603
lfemur -6.55872 -11.2879 -9.67623
ltibia 12.5346
lfoot -11.2691 35.5004
ltoes 13.0719
70
root 7.43454 15.6734 0.290142 27.8573 -87.884 -20.5308
lowerback -0.428682 1.13536 -0.970543
upperback -5.21206 1.41464 0.332363
thorax -5.17438 0.715319 0.832385
lowerneck -18.262 2.11215 5.65372
upperneck 20.1998 1.65502 -1.93656
head 9.46638 0.947569 -1.3919
rclavicle 1.13664e-014 6.80837e-015
rhumerus -13.3845 -18.1938 -21.8359
rradius 34.432
rwrist -0.251811
rhand 8.80314 -1.98875
rfingers 7.12502
rthumb 33.9903 -28.7747
lclavicle 1.13664e-014 6.80837e-015
lhumerus -6.17421 15.0056 19.7659
lradius 29.538
lwrist -13.4239
lhand 16.9231 14.2558
lfingers 7.12502
lthumb 41.6587 38.9591
rfemur -11.3648 17.6849 7.85321
rtibia 19.1574
rfoot -11.6397 -36.6342
rtoes 8.05107
lfemur -6.55003 -11.2934 -9.68556
ltibia 12.524
lfoot -11.2776 35.5109
ltoes 13.0927
71
root 7.43442 15.6733 0.289945 27.7882 -87.8952 -20.4598
lowerback -0.433896 1.1366 -0.970672
upperback -5.20581 1.41668 0.336094
thorax -5.16497 0.716443 0.836394
lowerneck -18.2884 2.10827 5.64344
upperneck 20.2114 1.64874 -1.92698
head 9.47484 0.94499 -1.38766
rclavicle 2.9271e-014 1.26725e-015
rhumerus -13.3979 -18.1989 -21.8362
rradius 34.4325
rwrist -0.256242
rhand 8.79548 -1.98966
rfingers 7.12502
rthumb 33.983 -28.7772
lclavicle 2.9271e-014 1.26725e-015
lhumerus -6.1874 14.9418 19.7738
lradius 29.5845
lwrist -13.3581
lhand 16.9714 14.6693
lfingers 7.12502
lthumb 41.704 39.3578
rfemur -11.3735 17.6828 7.84408
rtibia 19.1651
rfoot -11.6229 -36.6273
rtoes 8.00501
lfemur -6.54338 -11.3034 -9.69339
ltibia 12.5147
lfoot -11.2894 35.5279
ltoes 13.1155
72
root 7.43433 15.6733 0.289741 27.7632 -87.9053 -20.4308
lowerback -0.440195 1.13767 -0.969068
upperback -5.20072 1.41849 0.340285
thorax -5.15613 0.717374 0.83993
lowerneck -18.3166 2.10478 5.63377
upperneck 20.2258 1.64281 -1.91799
head 9.48463 0.942569 -1.38369
rclavicle -2.79386e-015 2.26118e-015
rhumerus -13.41 -18.2089 -21.838
rradius 34.432
rwrist -0.252035
rhand 8.79318 -1.98428
rfingers 7.12502
rthumb 33.9808 -28.7723
lclavicle -2.79386e-015 2.26118e-015
lhumerus -6.19853 14.9069 19.7787
lradius 29.6105
lwrist -13.3167
lhand 16.9997 14.9206
lfingers 7.12502
lthumb 41.7305 39.6004
rfemur -11.3837 17.6867 7.83597
rtibia 19.1715
rfoot -11.617 -36.6255
rtoes 7.98086
lfemur -6.54043 -11.3129 -9.69855
ltibia 12.5078
lfoot -11.3081 35.5437
ltoes 13.1496
73
root 7.43426 15.6732 0.289551 27.7619 -87.9136 -20.4261
lowerback -0.447013 1.13798 -0.965988
upperback -5.19477 1.41939 0.34496
thorax -5.14604 0.717796 0.843199
lowerneck -18.3463 2.10096 5.62537
upperneck 20.2402 1.63629 -1.9103
head 9.49468 0.939819 -1.38045
rclavicle -2.68049e-015 -8.72168e-015
rhumerus -13.4209 -18.2221 -21.8407
rradius 34.4311
rwrist -0.244089
rhand 8.79523 -1.97041
rfingers 7.12502
rthumb 33.9828 -28.758
lclavicle -2.68049e-015 -8.72168e-015
lhumerus -6.20818 14.8999 19.7801
lradius 29.616
lwrist -13.2965
lhand 17.0023 15.0036
lfingers 7.12502
lthumb 41.733 39.6824
rfemur -11.3928 17.6916 7.83038
rtibia 19.1769
rfoot -11.6003 -36.627
rtoes 7.93495
lfemur -6.53833 -11.3216 -9.70182
ltibia 12.5024
lfoot -11.3238 35.5581
ltoes 13.177
74
root 7.4342 15.6732 0.28937 27.8087 -87.9193 -20.4696
lowerback -0.453715 1.13792 -0.959257
upperback -5.18951 1.41985 0.349272
thorax -5.13663 0.717826 0.844059
lowerneck -18.3771 2.09683 5.62013
upperneck 20.2578 1.62851 -1.90348
head 9.50608 0.93664 -1.37823
rclavicle -1.29179e-014 -3.52843e-015
rhumerus -13.4331 -18.2401 -21.8444
rradius 34.4292
rwrist -0.23026
rhand 8.8029 -1.95061
rfingers 7.12502
rthumb 33.9901 -28.7366
lclavicle -1.29179e-014 -3.52843e-015
lhumerus -6.21274 14.925 19.7775
lradius 29.5957
lwrist -13.3027
lhand 16.9813 14.9005
lfingers 7.12502
lthumb 41.7133 39.5859
rfemur -11.4007 17.6975 7.82851
rtibia 19.181
rfoot -11.576 -36.6321
rtoes 7.87909
lfemur -6.53789 -11.3299 -9.70186
ltibia 12.4993
lfoot -11.3374 35.571
ltoes 13.2004
75
root 7.4342 15.6732 0.289216 27.8519 -87.9243 -20.5084
lowerback -0.461201 1.13766 -0.952037
upperback -5.1846 1.42001 0.353313
thorax -5.12711 0.717672 0.84439
lowerneck -18.4067 2.09267 5.61743
upperneck 20.2748 1.62078 -1.89983
head 9.51708 0.933317 -1.37753
rclavicle 1.21538e-014 2.26118e-015
rhumerus -13.4452 -18.2601 -21.8481
rradius 34.4267
rwrist -0.217491
rhand 8.81354 -1.92969
rfingers 7.12502
rthumb 34.0002 -28.7134
lclavicle 1.21538e-014 2.26118e-015
lhumerus -6.21495 14.9773 19.7719
lradius 29.5556
lwrist -13.331
lhand 16.9472 14.6418
lfingers 7.12502
lthumb 41.6813 39.3377
rfemur -11.41 17.699 7.8268
rtibia 19.1839
rfoot -11.5395 -36.6353
rtoes 7.80557
lfemur -6.54031 -11.3362 -9.70145
ltibia 12.4981
lfoot -11.3445 35.5827
ltoes 13.2117
76
root 7.43425 15.6731 0.289051 27.9318 -87.9277 -20.5842
lowerback -0.468017 1.13768 -0.94259
upperback -5.18028 1.42057 0.35703
thorax -5.11853 0.717614 0.843104
lowerneck -18.4347 2.08765 5.61534
upperneck 20.292 1.61162 -1.89567
head 9.52782 0.929435 -1.37695
rclavicle 2.76714e-014 4.47266e-015
rhumerus -13.4592 -18.2847 -21.8513
rradius 34.4223
rwrist -0.201771
rhand 8.82505 -1.91
rfingers 7.12502
rthumb 34.0111 -28.6913
lclavicle 2.76714e-014 4.47266e-015
lhumerus -6.21202 15.0576 19.7645
lradius 29.4938
lwrist -13.3816
lhand 16.8973 14.2224
lfingers 7.12502
lthumb 41.6345 38.9337
rfemur -11.4172 17.7081 7.82698
rtibia 19.1857
rfoot -11.5269 -36.6437
rtoes 7.77655
lfemur -6.54373 -11.3397 -9.69882
ltibia 12.4985
lfoot -11.3478 35.5912
ltoes 13.2163
